<svg width="67" height="67" viewBox="0 0 67 67" fill="none" xmlns="http://www.w3.org/2000/svg">
<path d="M33.0396 0C14.8421 0 0.0131836 14.9607 0.0131836 33.32C0.0131836 51.6793 14.8421 66.64 33.0396 66.64C51.2372 66.64 66.066 51.6793 66.066 33.32C66.066 14.9607 51.2372 0 33.0396 0ZM42.254 35.086L30.5957 46.8479C30.1003 47.3477 29.4728 47.581 28.8453 47.581C28.2178 47.581 27.5903 47.3477 27.0949 46.8479C26.1371 45.8816 26.1371 44.2823 27.0949 43.316L37.0028 33.32L27.0949 23.324C26.1371 22.3577 26.1371 20.7584 27.0949 19.7921C28.0526 18.8258 29.6379 18.8258 30.5957 19.7921L42.254 31.554C43.2448 32.5203 43.2448 34.1197 42.254 35.086Z" fill="#1C2B46"/>
</svg>
