<svg width="67" height="67" viewBox="0 0 67 67" fill="none" xmlns="http://www.w3.org/2000/svg">
<path d="M33.0264 0C51.224 0 66.0529 14.9607 66.0529 33.32C66.0529 51.6793 51.224 66.64 33.0264 66.64C14.8289 66.64 -7.62939e-06 51.6793 -7.62939e-06 33.32C-7.62939e-06 14.9607 14.8289 0 33.0264 0ZM23.812 35.086L35.4704 46.8479C35.9658 47.3477 36.5933 47.581 37.2208 47.581C37.8483 47.581 38.4758 47.3477 38.9712 46.8479C39.9289 45.8816 39.9289 44.2823 38.9712 43.316L29.0633 33.32L38.9712 23.324C39.9289 22.3577 39.9289 20.7584 38.9712 19.7921C38.0134 18.8258 36.4281 18.8258 35.4704 19.7921L23.812 31.554C22.8213 32.5203 22.8213 34.1197 23.812 35.086Z" fill="#1C2B46"/>
</svg>
