<svg width="36" height="36" viewBox="0 0 36 36" fill="none" xmlns="http://www.w3.org/2000/svg">
<path d="M16.8177 33.6354C7.54747 33.6354 0 26.088 0 16.8177C0 7.54747 7.54747 0 16.8177 0C26.088 0 33.6354 7.54747 33.6354 16.8177C33.6354 26.088 26.088 33.6354 16.8177 33.6354ZM16.8177 2.46113C8.89289 2.46113 2.46113 8.90929 2.46113 16.8177C2.46113 24.7262 8.89289 31.1743 16.8177 31.1743C24.7426 31.1743 31.1743 24.7262 31.1743 16.8177C31.1743 8.90929 24.7426 2.46113 16.8177 2.46113Z" fill="white"/>
<path d="M34.0462 35.276C33.7345 35.276 33.4228 35.1612 33.1766 34.9151L29.8951 31.6336C29.4193 31.1577 29.4193 30.3702 29.8951 29.8944C30.371 29.4186 31.1585 29.4186 31.6343 29.8944L34.9158 33.1759C35.3917 33.6517 35.3917 34.4393 34.9158 34.9151C34.6697 35.1612 34.358 35.276 34.0462 35.276Z" fill="white"/>
</svg>
