<svg width="30" height="30" viewBox="0 0 30 30" fill="none" xmlns="http://www.w3.org/2000/svg">
<path d="M1.05327 30C0.774268 30 0.509172 29.8884 0.313868 29.6932C0.0488132 29.4282 -0.0627193 29.0377 0.0349325 28.675L1.79268 22.106C0.620857 19.9303 0.00700408 17.4756 0.00700408 14.993C0.00700408 6.72247 6.73103 0 15.0035 0C23.276 0 30 6.72247 30 14.993C30 23.2636 23.276 29.9861 15.0035 29.9861C12.4785 29.9861 10.0094 29.3584 7.80524 28.159L1.33229 29.9582C1.23464 29.9861 1.15093 30 1.05327 30ZM7.9447 25.9972C8.12605 25.9972 8.30742 26.0531 8.47482 26.1368C10.4418 27.2944 12.7017 27.9079 15.0035 27.9079C22.1181 27.9079 27.9075 22.1199 27.9075 15.007C27.9075 7.89403 22.1181 2.10601 15.0035 2.10601C7.8889 2.10601 2.09954 7.89403 2.09954 15.007C2.09954 17.2803 2.69939 19.4979 3.82936 21.4505C3.96886 21.6876 4.01074 21.9805 3.94099 22.2455L2.54596 27.4616L7.67965 26.039C7.76335 26.0112 7.861 25.9972 7.9447 25.9972Z" fill="white"/>
<path d="M18.8259 23.0402C17.961 23.0402 17.0682 22.845 16.1335 22.4405C15.2547 22.0639 14.3758 21.5618 13.5248 20.9342C12.6878 20.3205 11.8649 19.6232 11.1115 18.8701C10.3582 18.103 9.66065 17.294 9.04684 16.4572C8.41907 15.5786 7.91687 14.7138 7.55416 13.8631C7.16355 12.9426 6.96826 12.036 6.96826 11.1713C6.96826 10.5576 7.07984 9.97186 7.28909 9.42792C7.51229 8.8561 7.87501 8.34004 8.34932 7.89374C9.24214 7.01507 10.5256 6.69432 11.544 7.18247C11.8927 7.33588 12.1857 7.58693 12.409 7.92166L14.0271 10.195C14.1945 10.4181 14.3201 10.6552 14.4178 10.8923C14.5294 11.1713 14.5992 11.4503 14.5992 11.7152C14.5992 12.0779 14.5014 12.4405 14.3061 12.7613C14.1805 12.9705 13.9991 13.2215 13.762 13.4586L13.5806 13.6539C13.6643 13.7654 13.762 13.9049 13.9154 14.0723C14.2084 14.407 14.5293 14.7696 14.878 15.1183C15.2268 15.453 15.5755 15.7878 15.9243 16.0807C16.0917 16.2201 16.2313 16.3317 16.3429 16.4014L16.5381 16.2062C16.7892 15.9551 17.0404 15.7599 17.2915 15.6343C17.7519 15.3415 18.4632 15.2717 19.091 15.5367C19.3142 15.6204 19.5374 15.7459 19.7746 15.9133L22.1044 17.559C22.4252 17.7822 22.6762 18.089 22.8436 18.4377C22.9831 18.7864 23.0391 19.0932 23.0391 19.414C23.0391 19.8324 22.9413 20.2369 22.7599 20.6274C22.5786 20.99 22.3693 21.3108 22.1182 21.6037C21.6718 22.0918 21.1558 22.4544 20.5978 22.6915C20.0397 22.9286 19.4397 23.0402 18.8259 23.0402ZM10.5256 9.06529C10.4419 9.06529 10.1629 9.06529 9.81417 9.41396C9.54911 9.66501 9.36772 9.93003 9.24217 10.2229C9.11662 10.5158 9.0608 10.8505 9.0608 11.1853C9.0608 11.771 9.20029 12.3986 9.47929 13.0681C9.77225 13.7654 10.2047 14.5046 10.7349 15.2438C11.2789 15.983 11.8927 16.7222 12.5764 17.4056C13.2599 18.0751 13.9852 18.7027 14.7385 19.2606C15.4639 19.7906 16.2034 20.209 16.9428 20.5298C18.003 20.99 18.9794 21.1016 19.7746 20.7669C20.0536 20.6553 20.3047 20.46 20.5558 20.209C20.6813 20.0695 20.7791 19.93 20.8628 19.7487C20.9047 19.6511 20.9324 19.5395 20.9324 19.4419C20.9324 19.414 20.9324 19.3722 20.8906 19.2885L18.5609 17.6706C18.4632 17.6009 18.3656 17.5451 18.2819 17.5172C18.2261 17.5451 18.1425 17.5869 17.9891 17.7403L17.459 18.2703C17.0544 18.6748 16.4127 18.7864 15.8965 18.6051L15.6454 18.4935C15.3246 18.3261 14.9617 18.0751 14.5572 17.7264C14.1666 17.3917 13.79 17.043 13.3855 16.6525C12.9949 16.248 12.6461 15.8714 12.3113 15.4809C11.9485 15.0486 11.6974 14.6999 11.53 14.407L11.3766 14.0444C11.3347 13.9049 11.3207 13.7515 11.3207 13.612C11.3207 13.2215 11.4603 12.8728 11.7254 12.5939L12.2555 12.05C12.409 11.8965 12.4648 11.8129 12.4927 11.7571C12.4508 11.6595 12.395 11.5758 12.3253 11.4781L10.693 9.17689L10.5256 9.06529Z" fill="white"/>
</svg>
